<?xml version="1.0" encoding="UTF-8"?>
<svg xmlns="http://www.w3.org/2000/svg" viewBox="0 0 1920 1248.5">
  <path d="M326.2,437.4 L327.1,442.6 L331.4,451.8 L337.5,458.8 L344.7,464.0 L1186.5,950.0 L1198.8,955.3 L1211.4,957.7 L1224.2,957.7 L1236.8,955.3 L1247.8,950.7 L1575.8,761.4 L1582.5,756.5 L1588.6,749.5 L1592.9,740.3 L1593.8,735.0 L1593.8,824.0 L1592.9,829.3 L1591.1,834.2 L1585.7,842.3 L1575.8,850.4 L1247.8,1039.7 L1236.8,1044.3 L1224.2,1046.7 L1211.4,1046.7 L1198.8,1044.3 L1186.5,1039.0 L341.0,550.6 L331.4,540.8 L327.1,531.6 L326.2,526.4Z" fill="#16110d"/>
  <path d="M452.1,526.0 L1037.5,864.0 L1037.5,912.0 L452.1,574.0Z" fill="#fff079"/>
  <path d="M1096.4,898.0 L1155.3,932.0 L1155.3,980.0 L1096.4,946.0Z" fill="#fff079"/>
  <path d="M354.7,422.6 L348.0,428.6 L346.1,433.8 L346.4,437.3 L348.0,440.7 L354.7,446.6 L1197.0,933.0 L1207.3,936.8 L1216.3,937.9 L1225.4,937.4 L1233.8,935.2 L1238.6,933.0 L1565.3,744.4 L1570.7,740.0 L1573.6,735.0 L1573.6,729.7 L1572.0,726.3 L1565.3,720.4 L723.0,234.0 L712.7,230.2 L703.7,229.1 L694.6,229.6 L686.2,231.8 L681.4,234.0Z" fill="#fff" stroke="#16110d" stroke-width="40" stroke-linejoin="round"/>
  <path d="M426.7,488.2 L627.4,604.1 L726.8,546.7 L526.1,430.8Z" fill="#16110d"/>
  <path d="M624.49,317.50 L1420.73,777.21" stroke="#16110d" stroke-width="40" stroke-linecap="butt"/>
</svg>
